<svg width="250" height="250" xmlns="http://www.w3.org/2000/svg" xmlns:xlink="http://www.w3.org/1999/xlink"
    viewBox="0 0 512 512">
    <defs>
        <radialGradient id="radial-gradient" cx="-61.38" cy="46.38" r="140.25"
            gradientTransform="matrix(1, 0.03, -0.04, 1.16, 6.78, -49.61)" gradientUnits="userSpaceOnUse">
            <stop offset="0" stop-color="#f2f2f2" />
            <stop offset="1" stop-color="#8da3ae" />
        </radialGradient>
        <radialGradient id="radial-gradient-2" cx="5.44" cy="248.57" r="99.97"
            gradientTransform="matrix(1, 0, 0, 1, 0, 0)" xlink:href="#radial-gradient" />
        <radialGradient id="radial-gradient-3" cx="-28.18" cy="6.88" r="108.31"
            gradientTransform="matrix(1, 0, 0, 1, 0, 0)" xlink:href="#radial-gradient" />
        <radialGradient id="radial-gradient-4" cx="51.11" cy="101.1" r="603.5" xlink:href="#radial-gradient" />
        <linearGradient id="linear-gradient" x1="109.44" y1="-253.15" x2="300.2" y2="480.11"
            gradientUnits="userSpaceOnUse">
            <stop offset="0" stop-color="#f2f2f2" />
            <stop offset="1" stop-color="#acbcc4" />
        </linearGradient>
        <radialGradient id="radial-gradient-5" cx="223.82" cy="383.09" r="245.12"
            gradientTransform="matrix(1, 0.05, -0.06, 1.16, 11.4, -68.61)" gradientUnits="userSpaceOnUse">
            <stop offset="0" stop-color="#fff" />
            <stop offset="1" stop-color="#8da3ae" />
        </radialGradient>
        <radialGradient id="radial-gradient-6" cx="158" cy="184.9" r="413.71"
            gradientTransform="matrix(0.97, 0.05, -0.06, 1.16, 48.1, -66.63)" gradientUnits="userSpaceOnUse">
            <stop offset="0" stop-color="#87e1fb" />
            <stop offset="1" stop-color="#2365ba" />
        </radialGradient>
        <linearGradient id="New_Gradient_Swatch_10" x1="264.08" y1="134.36" x2="30.68" y2="899.91"
            gradientTransform="matrix(1, 0, 0, 1, 0, 0)" xlink:href="#radial-gradient-6" />
    </defs>
    <title>security</title>
    <g style="isolation:isolate">
        <g id="Layer_1" data-name="Layer 1">
            <path
                d="M474.5,54.82c-55.07,16.44-120.76,27.34-192,20.74C201.38,68.05,128.58,42.75,74.65,7.28,64.9.87,19.2,18.81,18.19,55.8c-4.58,166.42,24,337.79,210,450.2C423.61,434.36,492,286.85,497.57,120.45A405.4,405.4,0,0,0,496.69,77C496,67,491.38,49.78,474.5,54.82Z"
                fill="url(#radial-gradient)" />
            <path
                d="M471.32,271c-54.33,1.24-110.45-20.63-178.17-22.5-81-2.23-167.77,31.91-223.94,91.89a383.72,383.72,0,0,0,62.84,89c28.57-18.4,57.89-32.4,76.11-39.27,54.11-20.39,110-30.19,167.2-18.94,10.63,2.09,22.1,7,33.67,12.18C436.86,349.45,457.19,311.61,471.32,271Z"
                opacity="0.53" fill="url(#radial-gradient-2)" style="mix-blend-mode:multiply" />
            <path
                d="M418.86,121.88c6.85,0,21.24-15.33,27.53-20.58,11-9.22,20.4-20,30.18-30.39,3.22-3.44,8.33-8.38,12.17-13.92-3.32-2.82-7.92-4.07-14.25-2.18-55.07,16.44-120.76,27.34-192,20.74C201.38,68.05,128.58,42.75,74.65,7.28a7.61,7.61,0,0,0-1-.54C51.46,18.87,32.78,37.37,48.26,63.43c17,28.58,53.6,40,80.89,56.14,26.71,15.78,50.56,28.54,81.49,32.83,44.55,6.18,99.29,24.66,143.21,10.05,26.31-8.76,57.21-18,82.45-29.48Z"
                opacity="0.53" fill="url(#radial-gradient-3)" style="mix-blend-mode:multiply" />
            <path
                d="M448.15,79.54c-55.07,16.44-120.76,27.34-192,20.74C175,92.78,102.23,67.47,48.3,32c-9.74-6.41-32.67,1.06-33.69,38C10,236.47,41.46,393.49,227.52,505.9c135.82-61.55,238.1-194.33,243.69-360.72a404.54,404.54,0,0,0-.88-43.49C469.6,91.75,465,74.5,448.15,79.54Z"
                fill="url(#radial-gradient-4)" />
            <path
                d="M256.11,100.28A511.8,511.8,0,0,1,146.27,78c-45.29,25.49-85,31.72-131.93,36.65A680.8,680.8,0,0,0,20.81,200c60.64-16.91,195.67-54.11,247.34-98.81Q262.16,100.83,256.11,100.28Zm153.1,169.3c-70,5.52-149.44-32.5-222.08-33.37-54.37-.65-107.33,4.52-152.07,30.48,13.36,45.84,34.33,89.54,66.07,130.16,80.23-43.79,199.8-9.49,291-23.53a402.92,402.92,0,0,0,59.74-116.15C440.21,263.75,426.41,268.23,409.21,269.58Z"
                opacity="0.56" fill="url(#linear-gradient)" style="mix-blend-mode:multiply" />
            <path
                d="M236.85,143.08C160.65,134.9,99.7,116,56.22,78.77c-8.72-5.23-9.59-5.24-9.59-5.24S39.26,124.64,39,129.72C32.61,262.27,113,399.26,213.48,462c109-47.47,171.72-121.17,178.12-253.72,1-19.75,2.59-31.86.07-50.83C345.79,176.16,300.37,149.9,236.85,143.08Z"
                fill="url(#radial-gradient-5)" />
            <path
                d="M233.16,144.13c-73.77-8.06-132.76-26.85-174.81-64a315.57,315.57,0,0,0-5.64,46.34C46.31,259,123.6,394.26,220.78,456.84c105.59-47.63,184-139.59,190.36-272.14,1-19.75,2.56-31.86.15-50.83C366.83,152.67,294.66,150.85,233.16,144.13Z"
                fill="url(#radial-gradient-6)" />
            <path
                d="M318.57,297.18C282.88,317.43,250.84,334,211,344.89c-25,6.81-55,13.65-80,25.79a365.44,365.44,0,0,0,64.82,68.14c17.28-13,30.28-24.88,52.36-33.06,26.51-9.82,53.89-17.93,81.57-25.2A293.16,293.16,0,0,0,402,248.34C375.32,266.61,346,281.64,318.57,297.18Zm-85.42-153q-22.37-2.44-42.9-6.28c-33.83,32.34-65.11,60.11-111.61,81-5.5,2.47-10.71,5-15.72,7.63a395.85,395.85,0,0,0,15.55,48.9c10.65-6.36,21.12-12.89,31.31-19.44,54.44-35,105.65-75.49,161.35-108.46C258.26,146.63,245.49,145.48,233.16,144.13Z"
                opacity="0.38" fill="url(#New_Gradient_Swatch_10)" style="mix-blend-mode:multiply" />
            <path
                d="M470.34,101.68c-.74-9.93-5.3-27.19-22.19-22.15-55.07,16.44-120.76,27.34-192,20.74C175,92.78,102.23,67.47,48.3,32c-6.74-4.44-19.8-2.22-27.54,11.83,6.54-4.19,13.62-4.14,18-1.25,53.93,35.47,126.73,60.78,207.82,68.28,71.27,6.6,137-4.31,192-20.74,16.88-5,21.45,12.21,22.19,22.15a405.71,405.71,0,0,1,.88,43.49c-3.33,99-40.89,186.1-99.37,253.38,63.91-68.61,105.39-159.69,108.9-264A404.54,404.54,0,0,0,470.34,101.68Z"
                fill="#fff" opacity="0.4" />
        </g>
    </g>
</svg>